<?xml version="1.0" encoding="utf-8"?>
<!-- Generator: Adobe Illustrator 16.0.0, SVG Export Plug-In . SVG Version: 6.00 Build 0)  -->
<!DOCTYPE svg PUBLIC "-//W3C//DTD SVG 1.1//EN" "http://www.w3.org/Graphics/SVG/1.1/DTD/svg11.dtd">
<svg version="1.1" id="Layer_1" xmlns="http://www.w3.org/2000/svg" xmlns:xlink="http://www.w3.org/1999/xlink" x="0px" y="0px"
	 width="240px" height="62.218px" viewBox="0 0 240 62.218" enable-background="new 0 0 240 62.218" xml:space="preserve">
<g enable-background="new    ">
	<path fill="#FFFFFF" d="M17.188,13.586l3.946,15.111l3.932-15.111h5.511V34.48h-4.233v-5.654l0.387-8.711L22.555,34.48h-2.87
		l-4.176-14.365l0.387,8.711v5.654h-4.219V13.586H17.188z"/>
	<path fill="#FFFFFF" d="M43.937,30.204h-5.754l-1.119,4.276H32.6l6.529-20.894h3.86l6.572,20.894h-4.506L43.937,30.204z
		 M39.101,26.688h3.903l-1.952-7.448L39.101,26.688z"/>
	<path fill="#FFFFFF" d="M57.842,26.846h-2.095v7.634h-4.219V13.586h6.73c2.114,0,3.748,0.548,4.9,1.644s1.729,2.652,1.729,4.671
		c0,2.774-1.01,4.717-3.028,5.826l3.659,8.552v0.201h-4.535L57.842,26.846z M55.748,23.33h2.396c0.842,0,1.473-0.279,1.894-0.84
		c0.421-0.56,0.631-1.308,0.631-2.245c0-2.096-0.818-3.143-2.454-3.143h-2.468V23.33z"/>
	<path fill="#FFFFFF" d="M73.671,26.415l-1.665,2.096v5.969h-4.219V13.586h4.219v9.113l1.334-2.254l3.889-6.859h5.166l-5.984,9.185
		l6.084,11.709h-5.008L73.671,26.415z"/>
	<path fill="#FFFFFF" d="M94.838,25.439h-6.573v5.539h7.778v3.501H84.046V13.586h11.968v3.517h-7.75v4.937h6.573V25.439z"/>
	<path fill="#FFFFFF" d="M112.288,17.103h-5.166V34.48h-4.233V17.103h-5.08v-3.517h14.479V17.103z"/>
	<path fill="#FFFFFF" d="M128.504,26.717l1.98-13.131h4.176l-3.717,20.894h-4.232l-2.44-12.312l-2.411,12.312h-4.248l-3.731-20.894
		h4.205l1.966,13.116l2.454-13.116h3.545L128.504,26.717z"/>
	<path fill="#FFFFFF" d="M141.348,34.48h-4.219V13.586h4.219V34.48z"/>
	<path fill="#FFFFFF" d="M151.221,26.846h-2.096v7.634h-4.219V13.586h6.73c2.114,0,3.748,0.548,4.9,1.644
		c1.153,1.096,1.729,2.652,1.729,4.671c0,2.774-1.01,4.717-3.028,5.826l3.659,8.552v0.201h-4.534L151.221,26.846z M149.125,23.33
		h2.396c0.842,0,1.474-0.279,1.895-0.84c0.421-0.56,0.632-1.308,0.632-2.245c0-2.096-0.818-3.143-2.454-3.143h-2.469V23.33z"/>
	<path fill="#FFFFFF" d="M171.957,25.439h-6.572v5.539h7.777v3.501h-11.997V13.586h11.969v3.517h-7.749v4.937h6.572V25.439z"/>
	<path fill="#FFFFFF" d="M175.717,32.414c0-0.65,0.217-1.186,0.652-1.607s1.002-0.631,1.701-0.631c0.679,0,1.243,0.208,1.692,0.624
		c0.45,0.416,0.675,0.954,0.675,1.614c0,0.67-0.228,1.209-0.682,1.615s-1.017,0.609-1.686,0.609c-0.68,0-1.242-0.205-1.687-0.617
		C175.938,33.611,175.717,33.074,175.717,32.414z"/>
	<path fill="#FFFFFF" d="M198.75,34.48h-4.22l-6.17-13.705V34.48h-4.22V13.586h4.22l6.185,13.72v-13.72h4.205V34.48z"/>
	<path fill="#FFFFFF" d="M212.928,25.439h-6.572v5.539h7.777v3.501h-11.997V13.586h11.969v3.517h-7.749v4.937h6.572V25.439z"/>
	<path fill="#FFFFFF" d="M230.378,17.103h-5.167V34.48h-4.233V17.103h-5.08v-3.517h14.48V17.103z"/>
</g>
<g>
	<g enable-background="new    ">
		<path fill="#FCB248" d="M11.356,52.218V38.593h2.997c1.468,0,2.608,0.498,3.419,1.492c0.812,0.996,1.218,2.395,1.218,4.197v2.283
			c0,1.804-0.412,3.196-1.235,4.179c-0.824,0.983-2.018,1.474-3.584,1.474H11.356z M12.936,40.062V50.75h1.27
			c1.111,0,1.923-0.345,2.435-1.035c0.513-0.689,0.774-1.712,0.786-3.067V44.23c0-1.436-0.255-2.489-0.765-3.16
			c-0.509-0.672-1.279-1.008-2.31-1.008H12.936z"/>
		<path fill="#FCB248" d="M24.577,52.406c-1.163,0-2.055-0.375-2.677-1.127c-0.622-0.752-0.938-1.855-0.95-3.309v-1.227
			c0-1.51,0.304-2.693,0.911-3.551s1.455-1.287,2.543-1.287c1.094,0,1.911,0.378,2.453,1.133c0.541,0.755,0.817,1.932,0.829,3.527
			v1.086H22.47v0.234c0,1.086,0.188,1.875,0.565,2.367c0.377,0.493,0.919,0.739,1.628,0.739c0.449,0,0.845-0.092,1.187-0.276
			c0.343-0.184,0.664-0.475,0.963-0.875l0.795,1.049C26.946,51.9,25.935,52.406,24.577,52.406z M24.404,43.329
			c-0.633,0-1.103,0.235-1.408,0.706c-0.305,0.472-0.478,1.203-0.518,2.195h3.679v-0.225c-0.04-0.961-0.2-1.647-0.479-2.059
			C25.398,43.535,24.974,43.329,24.404,43.329z"/>
		<path fill="#FCB248" d="M32.763,50.993c0.507,0,0.913-0.17,1.218-0.51s0.472-0.825,0.501-1.455h1.442
			c-0.034,0.974-0.353,1.779-0.954,2.419s-1.337,0.959-2.207,0.959c-1.157,0-2.04-0.395-2.646-1.184
			c-0.607-0.789-0.911-1.963-0.911-3.523v-1.113c0-1.529,0.302-2.69,0.907-3.486c0.604-0.795,1.485-1.193,2.643-1.193
			c0.956,0,1.714,0.328,2.275,0.982c0.561,0.656,0.859,1.551,0.894,2.687h-1.442c-0.035-0.749-0.2-1.31-0.497-1.685
			c-0.297-0.375-0.707-0.562-1.23-0.562c-0.68,0-1.183,0.241-1.511,0.726c-0.328,0.483-0.498,1.277-0.51,2.381v1.292
			c0,1.191,0.163,2.034,0.488,2.526C31.547,50.747,32.061,50.993,32.763,50.993z"/>
		<path fill="#FCB248" d="M37.366,46.688c0-1.472,0.33-2.638,0.989-3.495s1.53-1.287,2.612-1.287s1.953,0.418,2.612,1.254
			s0.998,1.975,1.015,3.416v1.066c0,1.467-0.328,2.627-0.984,3.482c-0.656,0.854-1.532,1.281-2.625,1.281
			c-1.082,0-1.95-0.414-2.604-1.244s-0.992-1.953-1.015-3.369V46.688z M38.895,47.642c0,1.043,0.189,1.861,0.566,2.457
			s0.885,0.894,1.524,0.894c1.347,0,2.041-1.054,2.082-3.163v-1.142c0-1.035-0.19-1.854-0.57-2.456
			c-0.38-0.602-0.889-0.903-1.528-0.903c-0.627,0-1.13,0.302-1.507,0.903s-0.566,1.418-0.566,2.447V47.642z"/>
		<path fill="#FCB248" d="M46.243,46.698c0-1.56,0.269-2.748,0.808-3.565c0.538-0.817,1.311-1.227,2.318-1.227
			c0.893,0,1.589,0.394,2.09,1.18v-5.24h1.529v14.373h-1.399l-0.078-1.085c-0.5,0.849-1.217,1.272-2.15,1.272
			c-0.967,0-1.726-0.406-2.276-1.221s-0.83-1.964-0.842-3.449V46.698z M47.771,47.637c0,1.134,0.156,1.968,0.467,2.501
			c0.311,0.532,0.817,0.799,1.52,0.799c0.76,0,1.327-0.414,1.701-1.243V44.59c-0.392-0.81-0.956-1.215-1.692-1.215
			c-0.703,0-1.209,0.267-1.52,0.799c-0.311,0.533-0.469,1.351-0.475,2.454V47.637z"/>
		<path fill="#FCB248" d="M58.679,52.406c-1.163,0-2.055-0.375-2.677-1.127c-0.622-0.752-0.938-1.855-0.95-3.309v-1.227
			c0-1.51,0.304-2.693,0.911-3.551s1.455-1.287,2.543-1.287c1.094,0,1.911,0.378,2.453,1.133c0.541,0.755,0.817,1.932,0.829,3.527
			v1.086h-5.216v0.234c0,1.086,0.188,1.875,0.565,2.367c0.377,0.493,0.919,0.739,1.628,0.739c0.449,0,0.845-0.092,1.187-0.276
			c0.343-0.184,0.664-0.475,0.963-0.875l0.795,1.049C61.048,51.9,60.037,52.406,58.679,52.406z M58.506,43.329
			c-0.633,0-1.103,0.235-1.408,0.706c-0.305,0.472-0.478,1.203-0.518,2.195h3.679v-0.225c-0.04-0.961-0.2-1.647-0.479-2.059
			C59.5,43.535,59.076,43.329,58.506,43.329z"/>
		<path fill="#FCB248" d="M71.157,45.434l2.573-6.841h1.788l-3.575,8.544v5.081h-1.581v-5.081l-3.575-8.544h1.796L71.157,45.434z"/>
		<path fill="#FCB248" d="M76.062,46.688c0-1.472,0.33-2.638,0.989-3.495s1.53-1.287,2.612-1.287s1.953,0.418,2.612,1.254
			s0.998,1.975,1.015,3.416v1.066c0,1.467-0.328,2.627-0.984,3.482c-0.656,0.854-1.532,1.281-2.625,1.281
			c-1.082,0-1.95-0.414-2.604-1.244s-0.992-1.953-1.015-3.369V46.688z M77.59,47.642c0,1.043,0.189,1.861,0.566,2.457
			s0.885,0.894,1.524,0.894c1.347,0,2.041-1.054,2.082-3.163v-1.142c0-1.035-0.19-1.854-0.57-2.456
			c-0.38-0.602-0.889-0.903-1.528-0.903c-0.627,0-1.13,0.302-1.507,0.903s-0.566,1.418-0.566,2.447V47.642z"/>
		<path fill="#FCB248" d="M90.026,51.33c-0.507,0.718-1.247,1.076-2.219,1.076c-0.846,0-1.485-0.316-1.917-0.949
			c-0.432-0.634-0.651-1.555-0.657-2.766v-6.598h1.52v6.477c0,1.578,0.438,2.367,1.313,2.367c0.927,0,1.566-0.449,1.917-1.348
			v-7.496h1.528v10.125h-1.451L90.026,51.33z"/>
		<path fill="#FCB248" d="M97.668,43.647c-0.213-0.044-0.443-0.065-0.691-0.065c-0.783,0-1.33,0.465-1.641,1.395v7.242h-1.528
			V42.093h1.485l0.026,1.029c0.409-0.811,0.987-1.217,1.736-1.217c0.242,0,0.443,0.044,0.604,0.131L97.668,43.647z"/>
		<path fill="#FCB248" d="M111.667,52.218h-1.589l-5.035-10.499v10.499h-1.589V38.593h1.589l5.052,10.547V38.593h1.572V52.218z"/>
		<path fill="#FCB248" d="M117.53,52.406c-1.163,0-2.055-0.375-2.677-1.127c-0.622-0.752-0.938-1.855-0.95-3.309v-1.227
			c0-1.51,0.304-2.693,0.911-3.551s1.455-1.287,2.543-1.287c1.094,0,1.911,0.378,2.453,1.133c0.541,0.755,0.817,1.932,0.829,3.527
			v1.086h-5.215v0.234c0,1.086,0.188,1.875,0.565,2.367c0.377,0.493,0.919,0.739,1.628,0.739c0.449,0,0.845-0.092,1.187-0.276
			c0.343-0.184,0.664-0.475,0.963-0.875l0.795,1.049C119.899,51.9,118.889,52.406,117.53,52.406z M117.357,43.329
			c-0.633,0-1.103,0.235-1.408,0.706c-0.305,0.472-0.478,1.203-0.518,2.195h3.679v-0.225c-0.04-0.961-0.2-1.647-0.479-2.059
			C118.352,43.535,117.927,43.329,117.357,43.329z"/>
		<path fill="#FCB248" d="M125.172,45.791l1.598-3.697h1.771l-2.539,5.007l2.599,5.118h-1.753l-1.649-3.789l-1.657,3.789h-1.762
			l2.599-5.118l-2.53-5.007h1.753L125.172,45.791z"/>
		<path fill="#FCB248" d="M132.236,39.642v2.451h1.408v1.338h-1.408v6.287c0,0.4,0.061,0.703,0.182,0.909s0.328,0.31,0.621,0.31
			c0.202,0,0.406-0.037,0.613-0.113l-0.017,1.396c-0.346,0.123-0.7,0.186-1.063,0.186c-0.604,0-1.065-0.234-1.382-0.701
			c-0.316-0.469-0.475-1.129-0.475-1.984v-6.289h-1.425v-1.338h1.425v-2.451H132.236z"/>
		<path fill="#FCB248" d="M141.762,38.593l3.281,11.117l3.281-11.117h2.038v13.625h-1.58v-5.306l0.147-5.315l-3.291,10.621h-1.209
			l-3.273-10.584l0.147,5.278v5.306h-1.58V38.593H141.762z"/>
		<path fill="#FCB248" d="M157.677,52.218c-0.092-0.218-0.158-0.586-0.198-1.104c-0.541,0.861-1.232,1.291-2.072,1.291
			c-0.847,0-1.508-0.258-1.982-0.771c-0.475-0.516-0.713-1.24-0.713-2.176c0-1.029,0.322-1.848,0.968-2.452
			c0.645-0.604,1.528-0.914,2.651-0.927h1.123v-1.076c0-0.605-0.125-1.035-0.372-1.291s-0.624-0.384-1.132-0.384
			c-0.46,0-0.834,0.148-1.122,0.444c-0.288,0.297-0.432,0.672-0.432,1.128h-1.528c0-0.519,0.141-1.013,0.423-1.483
			s0.662-0.84,1.14-1.109c0.479-0.268,1.011-0.402,1.598-0.402c0.955,0,1.683,0.258,2.181,0.772s0.753,1.265,0.765,2.251v5.109
			c0.006,0.779,0.104,1.457,0.293,2.03v0.149H157.677z M155.639,50.9c0.375,0,0.731-0.113,1.071-0.338
			c0.339-0.225,0.587-0.505,0.743-0.842v-2.414h-0.864c-0.726,0.012-1.298,0.188-1.718,0.528c-0.421,0.341-0.631,0.815-0.631,1.427
			c0,0.574,0.106,0.99,0.319,1.25C154.772,50.77,155.133,50.9,155.639,50.9z"/>
		<path fill="#FCB248" d="M165.198,43.647c-0.213-0.044-0.443-0.065-0.69-0.065c-0.783,0-1.33,0.465-1.641,1.395v7.242h-1.529
			V42.093h1.485l0.026,1.029c0.408-0.811,0.986-1.217,1.735-1.217c0.242,0,0.443,0.044,0.604,0.131L165.198,43.647z"/>
		<path fill="#FCB248" d="M169.067,47.586l-0.812,1.011v3.621h-1.529V37.845h1.529v8.6l2.91-4.352h1.83l-2.971,4.23l3.359,5.895
			h-1.778L169.067,47.586z"/>
		<path fill="#FCB248" d="M178.031,52.406c-1.164,0-2.056-0.375-2.678-1.127c-0.621-0.752-0.938-1.855-0.949-3.309v-1.227
			c0-1.51,0.303-2.693,0.91-3.551s1.455-1.287,2.543-1.287c1.094,0,1.912,0.378,2.453,1.133s0.817,1.932,0.829,3.527v1.086h-5.216
			v0.234c0,1.086,0.188,1.875,0.565,2.367c0.377,0.493,0.919,0.739,1.628,0.739c0.449,0,0.845-0.092,1.188-0.276
			c0.342-0.184,0.663-0.475,0.963-0.875l0.795,1.049C180.4,51.9,179.389,52.406,178.031,52.406z M177.857,43.329
			c-0.633,0-1.102,0.235-1.407,0.706c-0.306,0.472-0.478,1.203-0.519,2.195h3.68v-0.225c-0.041-0.961-0.2-1.647-0.479-2.059
			C178.853,43.535,178.428,43.329,177.857,43.329z"/>
		<path fill="#FCB248" d="M184.975,39.642v2.451h1.406v1.338h-1.406v6.287c0,0.4,0.06,0.703,0.181,0.909s0.328,0.31,0.622,0.31
			c0.201,0,0.406-0.037,0.613-0.113l-0.018,1.396c-0.346,0.123-0.699,0.186-1.063,0.186c-0.604,0-1.064-0.234-1.381-0.701
			c-0.317-0.469-0.476-1.129-0.476-1.984v-6.289h-1.425v-1.338h1.425v-2.451H184.975z"/>
		<path fill="#FCB248" d="M194.498,38.593l3.282,11.117l3.282-11.117h2.037v13.625h-1.58v-5.306l0.146-5.315l-3.29,10.621h-1.209
			l-3.272-10.584l0.146,5.278v5.306h-1.58V38.593H194.498z"/>
		<path fill="#FCB248" d="M205.285,46.688c0-1.472,0.329-2.638,0.988-3.495s1.529-1.287,2.612-1.287s1.953,0.418,2.612,1.254
			s0.998,1.975,1.015,3.416v1.066c0,1.467-0.328,2.627-0.984,3.482c-0.656,0.854-1.532,1.281-2.626,1.281
			c-1.082,0-1.949-0.414-2.604-1.244c-0.652-0.83-0.991-1.953-1.014-3.369V46.688z M206.813,47.642c0,1.043,0.189,1.861,0.566,2.457
			s0.885,0.894,1.523,0.894c1.348,0,2.041-1.054,2.082-3.163v-1.142c0-1.035-0.189-1.854-0.57-2.456
			c-0.38-0.602-0.889-0.903-1.528-0.903c-0.628,0-1.13,0.302-1.507,0.903s-0.566,1.418-0.566,2.447V47.642z"/>
		<path fill="#FCB248" d="M217.004,49.702l1.77-7.608h1.555l-2.771,10.125h-1.141l-2.807-10.125h1.555L217.004,49.702z"/>
		<path fill="#FCB248" d="M225.259,52.406c-1.163,0-2.056-0.375-2.677-1.127c-0.622-0.752-0.939-1.855-0.95-3.309v-1.227
			c0-1.51,0.304-2.693,0.911-3.551s1.455-1.287,2.543-1.287c1.094,0,1.911,0.378,2.453,1.133c0.541,0.755,0.816,1.932,0.828,3.527
			v1.086h-5.215v0.234c0,1.086,0.188,1.875,0.564,2.367c0.377,0.493,0.92,0.739,1.629,0.739c0.448,0,0.844-0.092,1.187-0.276
			c0.343-0.184,0.663-0.475,0.963-0.875l0.795,1.049C227.628,51.9,226.617,52.406,225.259,52.406z M225.086,43.329
			c-0.633,0-1.103,0.235-1.408,0.706c-0.305,0.472-0.477,1.203-0.518,2.195h3.679v-0.225c-0.04-0.961-0.2-1.647-0.479-2.059
			C226.08,43.535,225.656,43.329,225.086,43.329z"/>
	</g>
</g>
</svg>
